<svg width="513" height="483" viewBox="0 0 513 483" fill="none" xmlns="http://www.w3.org/2000/svg">
<circle cx="45.546" cy="45.546" r="45.546" transform="matrix(1 0 0 -1 0.5 482.842)" fill="#FBC87C"/>
<path fill-rule="evenodd" clip-rule="evenodd" d="M207.5 0.158691H45.5225C20.6573 0.158691 0.5 20.316 0.5 45.1812V270.28L207.5 0.158691ZM96.6979 482.842H467.478C492.343 482.842 512.5 462.684 512.5 437.819V45.1812C512.5 25.8086 500.264 9.29368 483.1 2.94286L485.213 4.56256L147.023 445.878C133.601 463.393 116.004 475.823 96.6979 482.842Z" fill="#FFA41C" fill-opacity="0.56"/>
<path fill-rule="evenodd" clip-rule="evenodd" d="M0.5 284.843C0.5 305.378 8.6514 325.072 23.1634 339.6L143.548 460.118C158.081 474.667 177.802 482.842 198.366 482.842H467.478C471.371 482.842 475.149 482.347 478.753 481.418C478.869 481.388 478.975 481.327 479.06 481.243C479.324 480.978 479.325 480.549 479.06 480.285L37.6314 38.3697C24.1866 24.91 0.5 26.1566 0.5 45.181V284.843Z" fill="#EF5D1E" fill-opacity="0.5"/>
</svg>
