<svg width="193" height="183" viewBox="0 0 193 183" fill="none" xmlns="http://www.w3.org/2000/svg">
<circle cx="17.0798" cy="17.0798" r="17.0798" transform="matrix(1 0 0 -1 0.5 182.003)" fill="#FBC87C"/>
<path fill-rule="evenodd" clip-rule="evenodd" d="M78.1251 0.99707H17.3834C8.05897 0.99707 0.5 8.55602 0.5 17.8805V102.293L78.1251 0.99707ZM36.5742 182.003H175.617C184.941 182.003 192.5 174.444 192.5 165.12V17.8805C192.5 10.6158 187.912 4.42269 181.475 2.04114L182.267 2.64852L55.4462 168.142C50.413 174.71 43.8141 179.371 36.5742 182.003Z" fill="#FFA41C" fill-opacity="0.56"/>
<path fill-rule="evenodd" clip-rule="evenodd" d="M0.5 107.754C0.5 115.454 3.55678 122.84 8.99877 128.288L54.1431 173.482C59.593 178.938 66.9881 182.003 74.6996 182.003H175.617C177.077 182.003 178.494 181.818 179.845 181.469C179.888 181.458 179.928 181.435 179.96 181.404V181.404C180.059 181.304 180.059 181.144 179.96 181.044L14.4243 15.3262C9.38249 10.2789 0.5 10.7463 0.5 17.8805V17.8805V107.754Z" fill="#EF5D1E" fill-opacity="0.5"/>
</svg>
